<svg width="90" height="90" viewBox="0 0 90 90" fill="none" xmlns="http://www.w3.org/2000/svg">
<rect width="90" height="90" rx="45" fill="#954CED"/>
<g clip-path="url(#clip0_0_626)">
<path d="M54.8387 22.6354H47.2093V53.4718C47.2093 57.146 44.2749 60.1641 40.6233 60.1641C36.9716 60.1641 34.0372 57.146 34.0372 53.4718C34.0372 49.8634 36.9064 46.9108 40.4277 46.7797V39.0378C32.6678 39.1689 26.4078 45.5331 26.4078 53.4718C26.4078 61.4763 32.7982 67.906 40.6885 67.906C48.5786 67.906 54.9691 61.4106 54.9691 53.4718V37.6599C57.8383 39.7595 61.3595 41.0061 65.0764 41.0717V33.3297C59.3381 33.1329 54.8387 28.409 54.8387 22.6354Z" fill="white"/>
</g>
<defs>
<clipPath id="clip0_0_626">
<rect width="45.2706" height="45.2706" fill="white" transform="translate(22.6353 22.6354)"/>
</clipPath>
</defs>
</svg>
