<svg width="90" height="90" viewBox="0 0 90 90" fill="none" xmlns="http://www.w3.org/2000/svg">
<rect width="90" height="90" rx="45" fill="#954CED"/>
<g clip-path="url(#clip0_0_622)">
<path d="M36.872 63.6631C53.9553 63.6631 63.2991 49.5097 63.2991 37.236C63.2991 36.834 63.2991 36.4338 63.272 36.0354C65.0897 34.7206 66.6589 33.0926 67.9059 31.2277C66.2108 31.9792 64.4126 32.4718 62.5712 32.689C64.5102 31.5283 65.9614 29.7026 66.6546 27.5517C64.8314 28.6337 62.8368 29.3961 60.7567 29.8062C59.3564 28.3171 57.5042 27.3311 55.487 27.0007C53.4698 26.6703 51.3999 27.0139 49.5976 27.9785C47.7954 28.943 46.3613 30.4746 45.5172 32.3363C44.6731 34.198 44.4662 36.286 44.9283 38.2772C41.2356 38.092 37.6232 37.1323 34.3254 35.4605C31.0276 33.7886 28.1182 31.442 25.7861 28.573C24.5984 30.6177 24.2346 33.0382 24.7688 35.3417C25.3031 37.6452 26.6952 39.6585 28.6617 40.9717C27.1835 40.9284 25.7375 40.5296 24.4461 39.8091V39.9269C24.4467 42.0713 25.189 44.1495 26.5472 45.8089C27.9053 47.4684 29.7957 48.6071 31.8976 49.0317C30.5302 49.4047 29.0955 49.4592 27.7038 49.191C28.2975 51.0364 29.4531 52.6501 31.0089 53.8066C32.5647 54.9631 34.443 55.6045 36.3812 55.6412C34.4555 57.1549 32.2502 58.274 29.8915 58.9346C27.5329 59.5952 25.0671 59.7843 22.6353 59.491C26.8829 62.2167 31.8251 63.6625 36.872 63.6559" fill="white"/>
</g>
<defs>
<clipPath id="clip0_0_622">
<rect width="45.2706" height="45.2706" fill="white" transform="translate(22.6353 22.6354)"/>
</clipPath>
</defs>
</svg>
