<svg width="111" height="167" viewBox="0 0 111 167" fill="none" xmlns="http://www.w3.org/2000/svg">
<g opacity="0.7">
<path fill-rule="evenodd" clip-rule="evenodd" d="M76.6881 32.6199C82.1081 31.2443 87.6029 34.5806 88.8827 40.024L109.549 127.931C110.63 132.527 108.348 137.253 104.077 139.265L59.2932 160.366C57.5869 161.169 55.688 161.474 53.8158 161.245L32.0552 158.581C27.8636 158.068 24.4462 154.977 23.5161 150.858L3.29098 61.2918C2.09718 56.0052 5.33217 50.7297 10.5854 49.3965L17.856 47.5512L34.5662 43.3103L48.9555 39.6583L63.3448 36.0064L76.6881 32.6199Z" fill="#A64CED"/>
<path d="M34.5662 43.3103C32.4391 34.9294 30.9701 17.4608 42.1102 14.6335C53.2503 11.8062 60.9083 27.704 63.3448 36.0064M34.5662 43.3103L48.9555 39.6583M34.5662 43.3103L17.856 47.5512M63.3448 36.0064L76.6881 32.6199C82.1081 31.2443 87.6029 34.5806 88.8827 40.024L109.549 127.931C110.63 132.527 108.348 137.253 104.077 139.265L59.2932 160.366C57.5869 161.169 55.688 161.474 53.8158 161.245L32.0552 158.581C27.8636 158.068 24.4462 154.977 23.5161 150.858L3.29098 61.2918C2.09718 56.0052 5.33217 50.7297 10.5854 49.3965L17.856 47.5512M63.3448 36.0064L48.9555 39.6583M48.9555 39.6583C44.9858 26.6832 33.9217 1.49816 21.4225 4.55909C8.92325 7.62003 13.8368 34.4959 17.856 47.5512" stroke="#A64CED" stroke-width="2" stroke-linecap="round" stroke-linejoin="round"/>
<path d="M55.029 150.066L49.482 130.134M32.841 70.3399L43.935 110.203" stroke="white" stroke-width="2" stroke-linecap="round" stroke-linejoin="round"/>
</g>
</svg>
