<svg width="72" height="87" viewBox="0 0 72 87" fill="none" xmlns="http://www.w3.org/2000/svg">
<g opacity="0.7">
<path fill-rule="evenodd" clip-rule="evenodd" d="M39.991 83.5198C35.2943 86.4255 29.1314 84.9736 26.2257 80.2769L6.00032 47.5849C3.09464 42.8883 4.54654 36.7253 9.24323 33.8196L13.5061 31.1823L20.8016 26.6689L28.097 22.1555L34.7085 18.0652V18.0652C38.3599 15.8061 43.1513 16.9349 45.4103 20.5863L66.8066 55.1709C69.7122 59.8676 68.2603 66.0305 63.5636 68.9362L39.991 83.5198Z" fill="#2FDBBC"/>
<path d="M13.5061 31.1823L9.24323 33.8196C4.54654 36.7253 3.09464 42.8883 6.00032 47.5849L26.2257 80.2769C29.1314 84.9736 35.2943 86.4255 39.991 83.5198L63.5636 68.9362C68.2603 66.0305 69.7122 59.8676 66.8066 55.1709L45.4103 20.5863C43.1513 16.9349 38.3599 15.8061 34.7085 18.0652V18.0652M13.5061 31.1823C11.1412 26.3406 8.10922 15.7328 14.9008 12.0355C21.6923 8.33815 26.5281 17.2416 28.097 22.1555M13.5061 31.1823L20.8016 26.6689M28.097 22.1555L20.8016 26.6689M28.097 22.1555L34.7085 18.0652M20.8016 26.6689C16.7237 20.2045 10.0962 6.47793 16.2093 3.28687C22.3224 0.0958037 31.0892 11.8094 34.7085 18.0652" stroke="#2FDBBC" stroke-width="2" stroke-linecap="round" stroke-linejoin="round"/>
</g>
</svg>
